<mxfile host="Electron" modified="2024-08-27T10:48:20.509Z" agent="Mozilla/5.0 (X11; Linux x86_64) AppleWebKit/537.36 (KHTML, like Gecko) draw.io/24.6.4 Chrome/124.0.6367.207 Electron/30.0.6 Safari/537.36" etag="PdI7WvqBRUtWb62SvA0k" version="24.6.4" type="device">
  <diagram name="Page-1" id="-H_mtQnk-PTXWXPvYvuk">
    <mxGraphModel dx="3164" dy="2124" grid="1" gridSize="10" guides="1" tooltips="1" connect="1" arrows="1" fold="1" page="1" pageScale="1" pageWidth="1169" pageHeight="827" math="0" shadow="0">
      <root>
        <mxCell id="0" />
        <mxCell id="1" parent="0" />
        <mxCell id="8HwspOPLJ6-Ykaj-4gRC-136" value="" style="rounded=1;whiteSpace=wrap;html=1;arcSize=4;dashed=1;dashPattern=12 12;fillColor=#FAFDFF;" vertex="1" parent="1">
          <mxGeometry x="-100" y="-90" width="1550" height="180" as="geometry" />
        </mxCell>
        <mxCell id="8HwspOPLJ6-Ykaj-4gRC-138" value="" style="rounded=1;whiteSpace=wrap;html=1;arcSize=4;dashed=1;dashPattern=12 12;fillColor=#FFFAFC;" vertex="1" parent="1">
          <mxGeometry x="-100" y="90" width="1550" height="160" as="geometry" />
        </mxCell>
        <mxCell id="8HwspOPLJ6-Ykaj-4gRC-140" value="" style="rounded=1;whiteSpace=wrap;html=1;arcSize=4;dashed=1;dashPattern=12 12;fillColor=#F5FFF5;" vertex="1" parent="1">
          <mxGeometry x="-100" y="250" width="1550" height="440" as="geometry" />
        </mxCell>
        <mxCell id="8HwspOPLJ6-Ykaj-4gRC-125" value="" style="rounded=1;whiteSpace=wrap;html=1;arcSize=3;opacity=70;" vertex="1" parent="1">
          <mxGeometry x="130" y="-80" width="430" height="770" as="geometry" />
        </mxCell>
        <mxCell id="_CsFHggYIHRbgl_CoFxa-67" value="" style="group" parent="1" vertex="1" connectable="0">
          <mxGeometry x="150" y="130" width="120" height="80" as="geometry" />
        </mxCell>
        <mxCell id="_CsFHggYIHRbgl_CoFxa-66" value="mongodb driver" style="rounded=1;whiteSpace=wrap;html=1;spacingTop=8;" parent="_CsFHggYIHRbgl_CoFxa-67" vertex="1">
          <mxGeometry y="50" width="120" height="30" as="geometry" />
        </mxCell>
        <mxCell id="zA23MoTUsTF4_91t8viU-3" value="pymongo-api" style="rounded=1;whiteSpace=wrap;html=1;" parent="_CsFHggYIHRbgl_CoFxa-67" vertex="1">
          <mxGeometry width="120" height="60" as="geometry" />
        </mxCell>
        <mxCell id="8HwspOPLJ6-Ykaj-4gRC-32" value="" style="group" vertex="1" connectable="0" parent="1">
          <mxGeometry x="280.65999999999997" y="130" width="120" height="80" as="geometry" />
        </mxCell>
        <mxCell id="8HwspOPLJ6-Ykaj-4gRC-144" style="edgeStyle=orthogonalEdgeStyle;shape=connector;rounded=0;orthogonalLoop=1;jettySize=auto;html=1;exitX=0.5;exitY=1;exitDx=0;exitDy=0;strokeColor=#009900;align=center;verticalAlign=middle;fontFamily=Helvetica;fontSize=11;fontColor=default;labelBackgroundColor=default;endArrow=classic;" edge="1" parent="8HwspOPLJ6-Ykaj-4gRC-32" source="8HwspOPLJ6-Ykaj-4gRC-33">
          <mxGeometry relative="1" as="geometry">
            <mxPoint x="-0.6599999999995134" y="210" as="targetPoint" />
          </mxGeometry>
        </mxCell>
        <mxCell id="8HwspOPLJ6-Ykaj-4gRC-33" value="mongodb driver" style="rounded=1;whiteSpace=wrap;html=1;spacingTop=8;" vertex="1" parent="8HwspOPLJ6-Ykaj-4gRC-32">
          <mxGeometry y="50" width="120" height="30" as="geometry" />
        </mxCell>
        <mxCell id="8HwspOPLJ6-Ykaj-4gRC-34" value="pymongo-api" style="rounded=1;whiteSpace=wrap;html=1;" vertex="1" parent="8HwspOPLJ6-Ykaj-4gRC-32">
          <mxGeometry width="120" height="60" as="geometry" />
        </mxCell>
        <mxCell id="8HwspOPLJ6-Ykaj-4gRC-35" value="" style="group" vertex="1" connectable="0" parent="1">
          <mxGeometry x="410" y="130" width="120" height="80" as="geometry" />
        </mxCell>
        <mxCell id="8HwspOPLJ6-Ykaj-4gRC-146" style="edgeStyle=orthogonalEdgeStyle;shape=connector;rounded=0;orthogonalLoop=1;jettySize=auto;html=1;exitX=0.5;exitY=1;exitDx=0;exitDy=0;strokeColor=#009900;align=center;verticalAlign=middle;fontFamily=Helvetica;fontSize=11;fontColor=default;labelBackgroundColor=default;endArrow=classic;" edge="1" parent="8HwspOPLJ6-Ykaj-4gRC-35" source="8HwspOPLJ6-Ykaj-4gRC-36">
          <mxGeometry relative="1" as="geometry">
            <mxPoint x="-129.99999999999955" y="210" as="targetPoint" />
          </mxGeometry>
        </mxCell>
        <mxCell id="8HwspOPLJ6-Ykaj-4gRC-36" value="mongodb driver" style="rounded=1;whiteSpace=wrap;html=1;spacingTop=8;" vertex="1" parent="8HwspOPLJ6-Ykaj-4gRC-35">
          <mxGeometry y="50" width="120" height="30" as="geometry" />
        </mxCell>
        <mxCell id="8HwspOPLJ6-Ykaj-4gRC-37" value="pymongo-api" style="rounded=1;whiteSpace=wrap;html=1;" vertex="1" parent="8HwspOPLJ6-Ykaj-4gRC-35">
          <mxGeometry width="120" height="60" as="geometry" />
        </mxCell>
        <mxCell id="8HwspOPLJ6-Ykaj-4gRC-45" value="Consul" style="rounded=1;whiteSpace=wrap;html=1;fillColor=#EDF6FF;" vertex="1" parent="1">
          <mxGeometry x="420" y="-5" width="120" height="60" as="geometry" />
        </mxCell>
        <mxCell id="_CsFHggYIHRbgl_CoFxa-4" value="MongoDB&lt;div&gt;Router&lt;/div&gt;&lt;div&gt;&lt;br&gt;&lt;/div&gt;&lt;div&gt;&lt;br&gt;&lt;/div&gt;" style="shape=cylinder3;whiteSpace=wrap;html=1;boundedLbl=1;backgroundOutline=1;size=15;fillColor=#78b381;strokeColor=#82b366;fontColor=#FFFFFF;fontSize=14;spacingTop=19;container=0;" parent="1" vertex="1">
          <mxGeometry x="230.00105263157897" y="340" width="101.3157894736842" height="80" as="geometry" />
        </mxCell>
        <mxCell id="_CsFHggYIHRbgl_CoFxa-31" value="" style="group;fontColor=#CCCCCC;" parent="1" vertex="1" connectable="0">
          <mxGeometry x="299.34473684210525" y="440" width="101.31578947368422" height="180" as="geometry" />
        </mxCell>
        <mxCell id="_CsFHggYIHRbgl_CoFxa-17" value="MongoDB&lt;div&gt;Secondary&lt;/div&gt;" style="shape=cylinder3;whiteSpace=wrap;html=1;boundedLbl=1;backgroundOutline=1;size=15;fillColor=none;strokeColor=#82b366;fontColor=#B3B3B3;fontSize=14;container=0;" parent="_CsFHggYIHRbgl_CoFxa-31" vertex="1">
          <mxGeometry y="100" width="101.3157894736842" height="80" as="geometry" />
        </mxCell>
        <mxCell id="_CsFHggYIHRbgl_CoFxa-2" value="MongoDB&lt;div&gt;Secondary&lt;/div&gt;" style="shape=cylinder3;whiteSpace=wrap;html=1;boundedLbl=1;backgroundOutline=1;size=15;fillColor=#B5DFB9;strokeColor=#82b366;fontColor=#FFFFFF;fontSize=14;container=0;" parent="_CsFHggYIHRbgl_CoFxa-31" vertex="1">
          <mxGeometry y="50" width="101.3157894736842" height="80" as="geometry" />
        </mxCell>
        <mxCell id="zA23MoTUsTF4_91t8viU-2" value="MongoDB&lt;div&gt;Primary&lt;/div&gt;" style="shape=cylinder3;whiteSpace=wrap;html=1;boundedLbl=1;backgroundOutline=1;size=15;fillColor=#78B381;strokeColor=#82b366;fontColor=#FFFFFF;fontSize=14;container=0;" parent="_CsFHggYIHRbgl_CoFxa-31" vertex="1">
          <mxGeometry width="101.3157894736842" height="80" as="geometry" />
        </mxCell>
        <mxCell id="8HwspOPLJ6-Ykaj-4gRC-68" value="" style="group" vertex="1" connectable="0" parent="1">
          <mxGeometry x="150.0021052631579" y="440" width="101.31578947368422" height="180" as="geometry" />
        </mxCell>
        <mxCell id="_CsFHggYIHRbgl_CoFxa-64" value="MDB Config Secondary" style="shape=cylinder3;whiteSpace=wrap;html=1;boundedLbl=1;backgroundOutline=1;size=15;fillColor=none;strokeColor=#82b366;fontColor=#B3B3B3;fontSize=14;spacingTop=-3;container=0;" parent="8HwspOPLJ6-Ykaj-4gRC-68" vertex="1">
          <mxGeometry y="100" width="101.3157894736842" height="80" as="geometry" />
        </mxCell>
        <mxCell id="_CsFHggYIHRbgl_CoFxa-51" value="MDB Config Secondary" style="shape=cylinder3;whiteSpace=wrap;html=1;boundedLbl=1;backgroundOutline=1;size=15;fillColor=#b5dfb9;strokeColor=#82b366;fontColor=#FFFFFF;fontSize=14;spacingTop=-3;container=0;" parent="8HwspOPLJ6-Ykaj-4gRC-68" vertex="1">
          <mxGeometry y="50" width="101.3157894736842" height="80" as="geometry" />
        </mxCell>
        <mxCell id="_CsFHggYIHRbgl_CoFxa-3" value="MongoDB&lt;div&gt;Config Server Primary&lt;/div&gt;" style="shape=cylinder3;whiteSpace=wrap;html=1;boundedLbl=1;backgroundOutline=1;size=15;fillColor=#78B381;strokeColor=#82b366;fontColor=#FFFFFF;fontSize=14;spacingTop=-3;container=0;" parent="8HwspOPLJ6-Ykaj-4gRC-68" vertex="1">
          <mxGeometry width="101.3157894736842" height="80" as="geometry" />
        </mxCell>
        <mxCell id="8HwspOPLJ6-Ykaj-4gRC-69" value="" style="group" vertex="1" connectable="0" parent="1">
          <mxGeometry x="420" y="294" width="120" height="120" as="geometry" />
        </mxCell>
        <mxCell id="8HwspOPLJ6-Ykaj-4gRC-30" value="Redis&lt;div&gt;Slave&lt;/div&gt;" style="shape=hexagon;perimeter=hexagonPerimeter2;whiteSpace=wrap;html=1;fixedSize=1;fillColor=#F8E4E2;strokeColor=#DE6560;fontSize=16;" vertex="1" parent="8HwspOPLJ6-Ykaj-4gRC-69">
          <mxGeometry y="40" width="120" height="80" as="geometry" />
        </mxCell>
        <mxCell id="8HwspOPLJ6-Ykaj-4gRC-16" value="Redis&lt;div&gt;Master&lt;/div&gt;" style="shape=hexagon;perimeter=hexagonPerimeter2;whiteSpace=wrap;html=1;fixedSize=1;fillColor=#f8cecc;strokeColor=#b85450;fontSize=16;" vertex="1" parent="8HwspOPLJ6-Ykaj-4gRC-69">
          <mxGeometry width="120" height="80" as="geometry" />
        </mxCell>
        <mxCell id="8HwspOPLJ6-Ykaj-4gRC-71" value="" style="group" vertex="1" connectable="0" parent="1">
          <mxGeometry x="584.9999999999999" y="-400" width="190" height="114" as="geometry" />
        </mxCell>
        <mxCell id="8HwspOPLJ6-Ykaj-4gRC-59" value="" style="group" vertex="1" connectable="0" parent="8HwspOPLJ6-Ykaj-4gRC-71">
          <mxGeometry y="20" width="86" height="50" as="geometry" />
        </mxCell>
        <mxCell id="8HwspOPLJ6-Ykaj-4gRC-46" value="" style="rounded=0;whiteSpace=wrap;html=1;" vertex="1" parent="8HwspOPLJ6-Ykaj-4gRC-59">
          <mxGeometry x="13.23076923076923" width="57.88461538461538" height="33.78378378378378" as="geometry" />
        </mxCell>
        <mxCell id="8HwspOPLJ6-Ykaj-4gRC-47" value="" style="rounded=0;whiteSpace=wrap;html=1;" vertex="1" parent="8HwspOPLJ6-Ykaj-4gRC-59">
          <mxGeometry x="15.298076923076922" y="3.378378378378378" width="53.75" height="27.027027027027025" as="geometry" />
        </mxCell>
        <mxCell id="8HwspOPLJ6-Ykaj-4gRC-48" value="" style="shape=trapezoid;perimeter=trapezoidPerimeter;whiteSpace=wrap;html=1;fixedSize=1;shadow=1;rounded=0;" vertex="1" parent="8HwspOPLJ6-Ykaj-4gRC-59">
          <mxGeometry y="36.486486486486484" width="86" height="13.513513513513512" as="geometry" />
        </mxCell>
        <mxCell id="8HwspOPLJ6-Ykaj-4gRC-64" value="" style="group" vertex="1" connectable="0" parent="8HwspOPLJ6-Ykaj-4gRC-71">
          <mxGeometry x="86" width="104" height="74" as="geometry" />
        </mxCell>
        <mxCell id="8HwspOPLJ6-Ykaj-4gRC-65" value="" style="rounded=0;whiteSpace=wrap;html=1;" vertex="1" parent="8HwspOPLJ6-Ykaj-4gRC-64">
          <mxGeometry x="16" width="70" height="50" as="geometry" />
        </mxCell>
        <mxCell id="8HwspOPLJ6-Ykaj-4gRC-66" value="" style="rounded=0;whiteSpace=wrap;html=1;" vertex="1" parent="8HwspOPLJ6-Ykaj-4gRC-64">
          <mxGeometry x="18.5" y="5" width="65" height="40" as="geometry" />
        </mxCell>
        <mxCell id="8HwspOPLJ6-Ykaj-4gRC-67" value="" style="shape=trapezoid;perimeter=trapezoidPerimeter;whiteSpace=wrap;html=1;fixedSize=1;shadow=1;rounded=0;" vertex="1" parent="8HwspOPLJ6-Ykaj-4gRC-64">
          <mxGeometry y="54" width="104" height="20" as="geometry" />
        </mxCell>
        <mxCell id="8HwspOPLJ6-Ykaj-4gRC-60" value="" style="group" vertex="1" connectable="0" parent="8HwspOPLJ6-Ykaj-4gRC-71">
          <mxGeometry x="46" y="40" width="104" height="74" as="geometry" />
        </mxCell>
        <mxCell id="8HwspOPLJ6-Ykaj-4gRC-61" value="" style="rounded=0;whiteSpace=wrap;html=1;" vertex="1" parent="8HwspOPLJ6-Ykaj-4gRC-60">
          <mxGeometry x="16" width="70" height="50" as="geometry" />
        </mxCell>
        <mxCell id="8HwspOPLJ6-Ykaj-4gRC-62" value="" style="rounded=0;whiteSpace=wrap;html=1;" vertex="1" parent="8HwspOPLJ6-Ykaj-4gRC-60">
          <mxGeometry x="18.5" y="5" width="65" height="40" as="geometry" />
        </mxCell>
        <mxCell id="8HwspOPLJ6-Ykaj-4gRC-63" value="" style="shape=trapezoid;perimeter=trapezoidPerimeter;whiteSpace=wrap;html=1;fixedSize=1;shadow=1;rounded=0;" vertex="1" parent="8HwspOPLJ6-Ykaj-4gRC-60">
          <mxGeometry y="54" width="104" height="20" as="geometry" />
        </mxCell>
        <mxCell id="8HwspOPLJ6-Ykaj-4gRC-121" value="" style="rounded=1;whiteSpace=wrap;html=1;fontSize=20;align=left;verticalAlign=top;fillColor=#FFFCF7;dashed=1;dashPattern=12 12;" vertex="1" parent="1">
          <mxGeometry x="-100" y="-160" width="1550" height="70" as="geometry" />
        </mxCell>
        <mxCell id="8HwspOPLJ6-Ykaj-4gRC-122" value="Region A CDN" style="rounded=1;whiteSpace=wrap;html=1;fontSize=16;fillColor=#FFF8E8;" vertex="1" parent="1">
          <mxGeometry x="130" y="-155" width="430" height="60" as="geometry" />
        </mxCell>
        <mxCell id="8HwspOPLJ6-Ykaj-4gRC-123" value="Region B CDN" style="rounded=1;whiteSpace=wrap;html=1;fillColor=#FFF8E8;" vertex="1" parent="1">
          <mxGeometry x="566.87" y="-155" width="433.13" height="60" as="geometry" />
        </mxCell>
        <mxCell id="8HwspOPLJ6-Ykaj-4gRC-124" value="Region C CDN" style="rounded=1;whiteSpace=wrap;html=1;fillColor=#FFF8E8;" vertex="1" parent="1">
          <mxGeometry x="1008.68" y="-155" width="431.32" height="60" as="geometry" />
        </mxCell>
        <mxCell id="8HwspOPLJ6-Ykaj-4gRC-129" value="" style="group" vertex="1" connectable="0" parent="1">
          <mxGeometry x="131.32" y="-50" width="205.5" height="100" as="geometry" />
        </mxCell>
        <mxCell id="8HwspOPLJ6-Ykaj-4gRC-44" value="consul_kv" style="ellipse;whiteSpace=wrap;html=1;fillColor=#EDF6FF;" vertex="1" parent="8HwspOPLJ6-Ykaj-4gRC-129">
          <mxGeometry x="115.5" y="50" width="90" height="50" as="geometry" />
        </mxCell>
        <mxCell id="8HwspOPLJ6-Ykaj-4gRC-43" value="APISIX" style="ellipse;shape=cloud;whiteSpace=wrap;html=1;fillColor=#dae8fc;strokeColor=#6c8ebf;" vertex="1" parent="8HwspOPLJ6-Ykaj-4gRC-129">
          <mxGeometry width="175" height="80" as="geometry" />
        </mxCell>
        <mxCell id="8HwspOPLJ6-Ykaj-4gRC-131" value="ЦОД #1" style="text;html=1;align=center;verticalAlign=middle;whiteSpace=wrap;rounded=0;" vertex="1" parent="1">
          <mxGeometry x="131.32000000000005" y="-80" width="60" height="30" as="geometry" />
        </mxCell>
        <mxCell id="8HwspOPLJ6-Ykaj-4gRC-132" value="CDN Layer" style="text;html=1;align=center;verticalAlign=middle;whiteSpace=wrap;rounded=0;fontColor=#000099;labelBorderColor=none;textShadow=1;fontSize=20;" vertex="1" parent="1">
          <mxGeometry x="-50" y="-140" width="150" height="30" as="geometry" />
        </mxCell>
        <mxCell id="8HwspOPLJ6-Ykaj-4gRC-137" value="Load balance Layer" style="text;html=1;align=center;verticalAlign=middle;whiteSpace=wrap;rounded=0;fontColor=#000099;labelBorderColor=none;textShadow=1;fontSize=20;" vertex="1" parent="1">
          <mxGeometry x="-50" y="-15" width="150" height="30" as="geometry" />
        </mxCell>
        <mxCell id="8HwspOPLJ6-Ykaj-4gRC-139" value="Backend Layer" style="text;html=1;align=center;verticalAlign=middle;whiteSpace=wrap;rounded=0;fontColor=#000099;labelBorderColor=none;textShadow=1;fontSize=20;" vertex="1" parent="1">
          <mxGeometry x="-50" y="150" width="150" height="30" as="geometry" />
        </mxCell>
        <mxCell id="8HwspOPLJ6-Ykaj-4gRC-141" value="Storage layer" style="text;html=1;align=center;verticalAlign=middle;whiteSpace=wrap;rounded=0;fontColor=#000099;labelBorderColor=none;textShadow=1;fontSize=20;" vertex="1" parent="1">
          <mxGeometry x="-60" y="440" width="150" height="30" as="geometry" />
        </mxCell>
        <mxCell id="8HwspOPLJ6-Ykaj-4gRC-143" style="edgeStyle=orthogonalEdgeStyle;rounded=0;orthogonalLoop=1;jettySize=auto;html=1;exitX=0.5;exitY=1;exitDx=0;exitDy=0;entryX=0.5;entryY=0;entryDx=0;entryDy=0;entryPerimeter=0;strokeColor=#009900;" edge="1" parent="1" source="_CsFHggYIHRbgl_CoFxa-66" target="_CsFHggYIHRbgl_CoFxa-4">
          <mxGeometry relative="1" as="geometry" />
        </mxCell>
        <mxCell id="8HwspOPLJ6-Ykaj-4gRC-158" style="edgeStyle=orthogonalEdgeStyle;shape=connector;rounded=0;orthogonalLoop=1;jettySize=auto;html=1;exitX=0.75;exitY=1;exitDx=0;exitDy=0;entryX=0.625;entryY=0;entryDx=0;entryDy=0;strokeColor=#FF6666;align=center;verticalAlign=middle;fontFamily=Helvetica;fontSize=11;fontColor=default;labelBackgroundColor=default;endArrow=classic;" edge="1" parent="1" source="_CsFHggYIHRbgl_CoFxa-66" target="8HwspOPLJ6-Ykaj-4gRC-16">
          <mxGeometry relative="1" as="geometry" />
        </mxCell>
        <mxCell id="8HwspOPLJ6-Ykaj-4gRC-159" style="edgeStyle=orthogonalEdgeStyle;shape=connector;rounded=0;orthogonalLoop=1;jettySize=auto;html=1;exitX=0.75;exitY=1;exitDx=0;exitDy=0;entryX=0.625;entryY=0;entryDx=0;entryDy=0;strokeColor=#FF6666;align=center;verticalAlign=middle;fontFamily=Helvetica;fontSize=11;fontColor=default;labelBackgroundColor=default;endArrow=classic;" edge="1" parent="1" source="8HwspOPLJ6-Ykaj-4gRC-33" target="8HwspOPLJ6-Ykaj-4gRC-16">
          <mxGeometry relative="1" as="geometry" />
        </mxCell>
        <mxCell id="8HwspOPLJ6-Ykaj-4gRC-161" style="edgeStyle=orthogonalEdgeStyle;shape=connector;rounded=0;orthogonalLoop=1;jettySize=auto;html=1;exitX=0.25;exitY=1;exitDx=0;exitDy=0;entryX=0.625;entryY=0;entryDx=0;entryDy=0;strokeColor=#FF6666;align=center;verticalAlign=middle;fontFamily=Helvetica;fontSize=11;fontColor=default;labelBackgroundColor=default;endArrow=classic;" edge="1" parent="1" source="8HwspOPLJ6-Ykaj-4gRC-36" target="8HwspOPLJ6-Ykaj-4gRC-16">
          <mxGeometry relative="1" as="geometry" />
        </mxCell>
        <mxCell id="8HwspOPLJ6-Ykaj-4gRC-162" style="edgeStyle=orthogonalEdgeStyle;shape=connector;rounded=0;orthogonalLoop=1;jettySize=auto;html=1;exitX=0;exitY=0.5;exitDx=0;exitDy=0;exitPerimeter=0;entryX=0.145;entryY=0;entryDx=0;entryDy=4.35;entryPerimeter=0;strokeColor=#009900;align=center;verticalAlign=middle;fontFamily=Helvetica;fontSize=11;fontColor=default;labelBackgroundColor=default;endArrow=classic;startArrow=classic;startFill=1;dashed=1;" edge="1" parent="1" source="_CsFHggYIHRbgl_CoFxa-4" target="_CsFHggYIHRbgl_CoFxa-3">
          <mxGeometry relative="1" as="geometry" />
        </mxCell>
        <mxCell id="8HwspOPLJ6-Ykaj-4gRC-163" style="edgeStyle=orthogonalEdgeStyle;shape=connector;rounded=0;orthogonalLoop=1;jettySize=auto;html=1;exitX=1;exitY=0.5;exitDx=0;exitDy=0;exitPerimeter=0;entryX=0.855;entryY=0;entryDx=0;entryDy=4.35;entryPerimeter=0;strokeColor=#009900;align=center;verticalAlign=middle;fontFamily=Helvetica;fontSize=11;fontColor=default;labelBackgroundColor=default;endArrow=classic;" edge="1" parent="1" source="_CsFHggYIHRbgl_CoFxa-4" target="zA23MoTUsTF4_91t8viU-2">
          <mxGeometry relative="1" as="geometry" />
        </mxCell>
        <mxCell id="8HwspOPLJ6-Ykaj-4gRC-165" style="edgeStyle=orthogonalEdgeStyle;shape=connector;rounded=0;orthogonalLoop=1;jettySize=auto;html=1;exitX=1;exitY=0.5;exitDx=0;exitDy=0;exitPerimeter=0;entryX=1;entryY=0.5;entryDx=0;entryDy=0;entryPerimeter=0;strokeColor=#009900;align=center;verticalAlign=middle;fontFamily=Helvetica;fontSize=11;fontColor=default;labelBackgroundColor=default;endArrow=classic;" edge="1" parent="1" source="_CsFHggYIHRbgl_CoFxa-4" target="_CsFHggYIHRbgl_CoFxa-2">
          <mxGeometry relative="1" as="geometry">
            <Array as="points">
              <mxPoint x="410" y="380" />
              <mxPoint x="410" y="530" />
            </Array>
          </mxGeometry>
        </mxCell>
        <mxCell id="8HwspOPLJ6-Ykaj-4gRC-166" style="edgeStyle=orthogonalEdgeStyle;shape=connector;rounded=0;orthogonalLoop=1;jettySize=auto;html=1;exitX=0.55;exitY=0.95;exitDx=0;exitDy=0;exitPerimeter=0;entryX=0.5;entryY=0;entryDx=0;entryDy=0;strokeColor=#3399FF;align=center;verticalAlign=middle;fontFamily=Helvetica;fontSize=11;fontColor=default;labelBackgroundColor=default;endArrow=classic;" edge="1" parent="1" source="8HwspOPLJ6-Ykaj-4gRC-43" target="zA23MoTUsTF4_91t8viU-3">
          <mxGeometry relative="1" as="geometry" />
        </mxCell>
        <mxCell id="8HwspOPLJ6-Ykaj-4gRC-168" style="edgeStyle=orthogonalEdgeStyle;shape=connector;rounded=0;orthogonalLoop=1;jettySize=auto;html=1;exitX=0.55;exitY=0.95;exitDx=0;exitDy=0;exitPerimeter=0;entryX=0.5;entryY=0;entryDx=0;entryDy=0;strokeColor=#3399FF;align=center;verticalAlign=middle;fontFamily=Helvetica;fontSize=11;fontColor=default;labelBackgroundColor=default;endArrow=classic;" edge="1" parent="1" source="8HwspOPLJ6-Ykaj-4gRC-43" target="8HwspOPLJ6-Ykaj-4gRC-34">
          <mxGeometry relative="1" as="geometry" />
        </mxCell>
        <mxCell id="8HwspOPLJ6-Ykaj-4gRC-170" style="edgeStyle=orthogonalEdgeStyle;shape=connector;curved=1;rounded=0;orthogonalLoop=1;jettySize=auto;html=1;exitX=1;exitY=0.5;exitDx=0;exitDy=0;entryX=0;entryY=0.5;entryDx=0;entryDy=0;strokeColor=#3399FF;align=center;verticalAlign=middle;fontFamily=Helvetica;fontSize=11;fontColor=default;labelBackgroundColor=default;endArrow=classic;dashed=1;" edge="1" parent="1" source="8HwspOPLJ6-Ykaj-4gRC-44" target="8HwspOPLJ6-Ykaj-4gRC-45">
          <mxGeometry relative="1" as="geometry" />
        </mxCell>
        <mxCell id="8HwspOPLJ6-Ykaj-4gRC-171" style="edgeStyle=orthogonalEdgeStyle;shape=connector;rounded=0;orthogonalLoop=1;jettySize=auto;html=1;exitX=0.5;exitY=1;exitDx=0;exitDy=0;entryX=0.5;entryY=0;entryDx=0;entryDy=0;strokeColor=#000000;align=center;verticalAlign=middle;fontFamily=Helvetica;fontSize=11;fontColor=default;labelBackgroundColor=default;endArrow=classic;" edge="1" parent="1" source="8HwspOPLJ6-Ykaj-4gRC-48" target="8HwspOPLJ6-Ykaj-4gRC-122">
          <mxGeometry relative="1" as="geometry" />
        </mxCell>
        <mxCell id="8HwspOPLJ6-Ykaj-4gRC-173" style="edgeStyle=orthogonalEdgeStyle;shape=connector;rounded=0;orthogonalLoop=1;jettySize=auto;html=1;exitX=0.5;exitY=1;exitDx=0;exitDy=0;entryX=0.5;entryY=0;entryDx=0;entryDy=0;strokeColor=#000000;align=center;verticalAlign=middle;fontFamily=Helvetica;fontSize=11;fontColor=default;labelBackgroundColor=default;endArrow=classic;" edge="1" parent="1" source="8HwspOPLJ6-Ykaj-4gRC-63" target="8HwspOPLJ6-Ykaj-4gRC-123">
          <mxGeometry relative="1" as="geometry" />
        </mxCell>
        <mxCell id="8HwspOPLJ6-Ykaj-4gRC-174" style="edgeStyle=orthogonalEdgeStyle;shape=connector;rounded=0;orthogonalLoop=1;jettySize=auto;html=1;exitX=0.5;exitY=1;exitDx=0;exitDy=0;entryX=0.5;entryY=0;entryDx=0;entryDy=0;strokeColor=#000000;align=center;verticalAlign=middle;fontFamily=Helvetica;fontSize=11;fontColor=default;labelBackgroundColor=default;endArrow=classic;" edge="1" parent="1" source="8HwspOPLJ6-Ykaj-4gRC-67" target="8HwspOPLJ6-Ykaj-4gRC-124">
          <mxGeometry relative="1" as="geometry" />
        </mxCell>
        <mxCell id="8HwspOPLJ6-Ykaj-4gRC-175" style="edgeStyle=orthogonalEdgeStyle;shape=connector;rounded=0;orthogonalLoop=1;jettySize=auto;html=1;exitX=0.75;exitY=0;exitDx=0;exitDy=0;entryX=0.5;entryY=1;entryDx=0;entryDy=0;strokeColor=#3399FF;align=center;verticalAlign=middle;fontFamily=Helvetica;fontSize=11;fontColor=default;labelBackgroundColor=default;endArrow=classic;dashed=1;elbow=vertical;" edge="1" parent="1" source="zA23MoTUsTF4_91t8viU-3" target="8HwspOPLJ6-Ykaj-4gRC-45">
          <mxGeometry relative="1" as="geometry" />
        </mxCell>
        <mxCell id="8HwspOPLJ6-Ykaj-4gRC-176" style="edgeStyle=orthogonalEdgeStyle;shape=connector;rounded=0;orthogonalLoop=1;jettySize=auto;html=1;exitX=0.75;exitY=0;exitDx=0;exitDy=0;entryX=0.5;entryY=1;entryDx=0;entryDy=0;dashed=1;strokeColor=#3399FF;align=center;verticalAlign=middle;fontFamily=Helvetica;fontSize=11;fontColor=default;labelBackgroundColor=default;endArrow=classic;" edge="1" parent="1" source="8HwspOPLJ6-Ykaj-4gRC-34" target="8HwspOPLJ6-Ykaj-4gRC-45">
          <mxGeometry relative="1" as="geometry" />
        </mxCell>
        <mxCell id="8HwspOPLJ6-Ykaj-4gRC-178" style="edgeStyle=orthogonalEdgeStyle;shape=connector;rounded=0;orthogonalLoop=1;jettySize=auto;html=1;exitX=0.75;exitY=0;exitDx=0;exitDy=0;entryX=0.5;entryY=1;entryDx=0;entryDy=0;dashed=1;strokeColor=#3399FF;align=center;verticalAlign=middle;fontFamily=Helvetica;fontSize=11;fontColor=default;labelBackgroundColor=default;endArrow=classic;" edge="1" parent="1" source="8HwspOPLJ6-Ykaj-4gRC-37" target="8HwspOPLJ6-Ykaj-4gRC-45">
          <mxGeometry relative="1" as="geometry" />
        </mxCell>
        <mxCell id="8HwspOPLJ6-Ykaj-4gRC-180" style="edgeStyle=orthogonalEdgeStyle;shape=connector;rounded=0;orthogonalLoop=1;jettySize=auto;html=1;exitX=0.55;exitY=0.95;exitDx=0;exitDy=0;exitPerimeter=0;entryX=0.5;entryY=0;entryDx=0;entryDy=0;strokeColor=#3399FF;align=center;verticalAlign=middle;fontFamily=Helvetica;fontSize=11;fontColor=default;labelBackgroundColor=default;endArrow=classic;" edge="1" parent="1" source="8HwspOPLJ6-Ykaj-4gRC-43" target="8HwspOPLJ6-Ykaj-4gRC-37">
          <mxGeometry relative="1" as="geometry">
            <Array as="points">
              <mxPoint x="228" y="80" />
              <mxPoint x="470" y="80" />
            </Array>
          </mxGeometry>
        </mxCell>
        <mxCell id="8HwspOPLJ6-Ykaj-4gRC-182" value="" style="rounded=1;whiteSpace=wrap;html=1;arcSize=3;opacity=70;" vertex="1" parent="1">
          <mxGeometry x="568.43" y="-80" width="430" height="770" as="geometry" />
        </mxCell>
        <mxCell id="8HwspOPLJ6-Ykaj-4gRC-183" value="" style="group" vertex="1" connectable="0" parent="1">
          <mxGeometry x="588.4300000000001" y="130" width="120" height="80" as="geometry" />
        </mxCell>
        <mxCell id="8HwspOPLJ6-Ykaj-4gRC-184" value="mongodb driver" style="rounded=1;whiteSpace=wrap;html=1;spacingTop=8;" vertex="1" parent="8HwspOPLJ6-Ykaj-4gRC-183">
          <mxGeometry y="50" width="120" height="30" as="geometry" />
        </mxCell>
        <mxCell id="8HwspOPLJ6-Ykaj-4gRC-185" value="pymongo-api" style="rounded=1;whiteSpace=wrap;html=1;" vertex="1" parent="8HwspOPLJ6-Ykaj-4gRC-183">
          <mxGeometry width="120" height="60" as="geometry" />
        </mxCell>
        <mxCell id="8HwspOPLJ6-Ykaj-4gRC-186" value="" style="group" vertex="1" connectable="0" parent="1">
          <mxGeometry x="719.0899999999999" y="130" width="120" height="80" as="geometry" />
        </mxCell>
        <mxCell id="8HwspOPLJ6-Ykaj-4gRC-187" style="edgeStyle=orthogonalEdgeStyle;shape=connector;rounded=0;orthogonalLoop=1;jettySize=auto;html=1;exitX=0.5;exitY=1;exitDx=0;exitDy=0;strokeColor=#009900;align=center;verticalAlign=middle;fontFamily=Helvetica;fontSize=11;fontColor=default;labelBackgroundColor=default;endArrow=classic;" edge="1" parent="8HwspOPLJ6-Ykaj-4gRC-186" source="8HwspOPLJ6-Ykaj-4gRC-188">
          <mxGeometry relative="1" as="geometry">
            <mxPoint x="-0.6599999999995134" y="210" as="targetPoint" />
          </mxGeometry>
        </mxCell>
        <mxCell id="8HwspOPLJ6-Ykaj-4gRC-188" value="mongodb driver" style="rounded=1;whiteSpace=wrap;html=1;spacingTop=8;" vertex="1" parent="8HwspOPLJ6-Ykaj-4gRC-186">
          <mxGeometry y="50" width="120" height="30" as="geometry" />
        </mxCell>
        <mxCell id="8HwspOPLJ6-Ykaj-4gRC-189" value="pymongo-api" style="rounded=1;whiteSpace=wrap;html=1;" vertex="1" parent="8HwspOPLJ6-Ykaj-4gRC-186">
          <mxGeometry width="120" height="60" as="geometry" />
        </mxCell>
        <mxCell id="8HwspOPLJ6-Ykaj-4gRC-190" value="" style="group" vertex="1" connectable="0" parent="1">
          <mxGeometry x="848.4300000000001" y="130" width="120" height="80" as="geometry" />
        </mxCell>
        <mxCell id="8HwspOPLJ6-Ykaj-4gRC-191" style="edgeStyle=orthogonalEdgeStyle;shape=connector;rounded=0;orthogonalLoop=1;jettySize=auto;html=1;exitX=0.5;exitY=1;exitDx=0;exitDy=0;strokeColor=#009900;align=center;verticalAlign=middle;fontFamily=Helvetica;fontSize=11;fontColor=default;labelBackgroundColor=default;endArrow=classic;" edge="1" parent="8HwspOPLJ6-Ykaj-4gRC-190" source="8HwspOPLJ6-Ykaj-4gRC-192">
          <mxGeometry relative="1" as="geometry">
            <mxPoint x="-129.99999999999955" y="210" as="targetPoint" />
          </mxGeometry>
        </mxCell>
        <mxCell id="8HwspOPLJ6-Ykaj-4gRC-192" value="mongodb driver" style="rounded=1;whiteSpace=wrap;html=1;spacingTop=8;" vertex="1" parent="8HwspOPLJ6-Ykaj-4gRC-190">
          <mxGeometry y="50" width="120" height="30" as="geometry" />
        </mxCell>
        <mxCell id="8HwspOPLJ6-Ykaj-4gRC-193" value="pymongo-api" style="rounded=1;whiteSpace=wrap;html=1;" vertex="1" parent="8HwspOPLJ6-Ykaj-4gRC-190">
          <mxGeometry width="120" height="60" as="geometry" />
        </mxCell>
        <mxCell id="8HwspOPLJ6-Ykaj-4gRC-194" value="Consul" style="rounded=1;whiteSpace=wrap;html=1;fillColor=#EDF6FF;" vertex="1" parent="1">
          <mxGeometry x="858.4300000000001" y="-5" width="120" height="60" as="geometry" />
        </mxCell>
        <mxCell id="8HwspOPLJ6-Ykaj-4gRC-195" value="MongoDB&lt;div&gt;Router&lt;/div&gt;&lt;div&gt;&lt;br&gt;&lt;/div&gt;&lt;div&gt;&lt;br&gt;&lt;/div&gt;" style="shape=cylinder3;whiteSpace=wrap;html=1;boundedLbl=1;backgroundOutline=1;size=15;fillColor=#78B381;strokeColor=#82b366;fontColor=#FFFFFF;fontSize=14;spacingTop=19;container=0;" vertex="1" parent="1">
          <mxGeometry x="668.431052631579" y="340" width="101.3157894736842" height="80" as="geometry" />
        </mxCell>
        <mxCell id="8HwspOPLJ6-Ykaj-4gRC-196" value="" style="group;fontColor=#CCCCCC;" vertex="1" connectable="0" parent="1">
          <mxGeometry x="737.7747368421053" y="440" width="101.31578947368422" height="180" as="geometry" />
        </mxCell>
        <mxCell id="8HwspOPLJ6-Ykaj-4gRC-197" value="MongoDB&lt;div&gt;Secondary&lt;/div&gt;" style="shape=cylinder3;whiteSpace=wrap;html=1;boundedLbl=1;backgroundOutline=1;size=15;fillColor=none;strokeColor=#82b366;fontColor=#B3B3B3;fontSize=14;container=0;" vertex="1" parent="8HwspOPLJ6-Ykaj-4gRC-196">
          <mxGeometry y="100" width="101.3157894736842" height="80" as="geometry" />
        </mxCell>
        <mxCell id="8HwspOPLJ6-Ykaj-4gRC-198" value="MongoDB&lt;div&gt;Secondary&lt;/div&gt;" style="shape=cylinder3;whiteSpace=wrap;html=1;boundedLbl=1;backgroundOutline=1;size=15;fillColor=#B5DFB9;strokeColor=#82b366;fontColor=#FFFFFF;fontSize=14;container=0;" vertex="1" parent="8HwspOPLJ6-Ykaj-4gRC-196">
          <mxGeometry y="50" width="101.3157894736842" height="80" as="geometry" />
        </mxCell>
        <mxCell id="8HwspOPLJ6-Ykaj-4gRC-199" value="MongoDB&lt;div&gt;Primary&lt;/div&gt;" style="shape=cylinder3;whiteSpace=wrap;html=1;boundedLbl=1;backgroundOutline=1;size=15;fillColor=#78B381;strokeColor=#82b366;fontColor=#FFFFFF;fontSize=14;container=0;" vertex="1" parent="8HwspOPLJ6-Ykaj-4gRC-196">
          <mxGeometry width="101.3157894736842" height="80" as="geometry" />
        </mxCell>
        <mxCell id="8HwspOPLJ6-Ykaj-4gRC-200" value="" style="group" vertex="1" connectable="0" parent="1">
          <mxGeometry x="588.4321052631578" y="440" width="101.31578947368422" height="180" as="geometry" />
        </mxCell>
        <mxCell id="8HwspOPLJ6-Ykaj-4gRC-201" value="MDB Config Secondary" style="shape=cylinder3;whiteSpace=wrap;html=1;boundedLbl=1;backgroundOutline=1;size=15;fillColor=none;strokeColor=#82b366;fontColor=#B3B3B3;fontSize=14;spacingTop=-3;container=0;" vertex="1" parent="8HwspOPLJ6-Ykaj-4gRC-200">
          <mxGeometry y="100" width="101.3157894736842" height="80" as="geometry" />
        </mxCell>
        <mxCell id="8HwspOPLJ6-Ykaj-4gRC-202" value="MDB Config Secondary" style="shape=cylinder3;whiteSpace=wrap;html=1;boundedLbl=1;backgroundOutline=1;size=15;fillColor=#B5DFB9;strokeColor=#82b366;fontColor=#FFFFFF;fontSize=14;spacingTop=-3;container=0;" vertex="1" parent="8HwspOPLJ6-Ykaj-4gRC-200">
          <mxGeometry y="50" width="101.3157894736842" height="80" as="geometry" />
        </mxCell>
        <mxCell id="8HwspOPLJ6-Ykaj-4gRC-203" value="MongoDB&lt;div&gt;Config Server Primary&lt;/div&gt;" style="shape=cylinder3;whiteSpace=wrap;html=1;boundedLbl=1;backgroundOutline=1;size=15;fillColor=#78B381;strokeColor=#82b366;fontColor=#FFFFFF;fontSize=14;spacingTop=-3;container=0;" vertex="1" parent="8HwspOPLJ6-Ykaj-4gRC-200">
          <mxGeometry width="101.3157894736842" height="80" as="geometry" />
        </mxCell>
        <mxCell id="8HwspOPLJ6-Ykaj-4gRC-204" value="" style="group" vertex="1" connectable="0" parent="1">
          <mxGeometry x="858.4300000000001" y="294" width="120" height="120" as="geometry" />
        </mxCell>
        <mxCell id="8HwspOPLJ6-Ykaj-4gRC-205" value="Redis&lt;div&gt;Slave&lt;/div&gt;" style="shape=hexagon;perimeter=hexagonPerimeter2;whiteSpace=wrap;html=1;fixedSize=1;fillColor=#F8E4E2;strokeColor=#b85450;fontSize=16;" vertex="1" parent="8HwspOPLJ6-Ykaj-4gRC-204">
          <mxGeometry y="40" width="120" height="80" as="geometry" />
        </mxCell>
        <mxCell id="8HwspOPLJ6-Ykaj-4gRC-206" value="Redis&lt;div&gt;Master&lt;/div&gt;" style="shape=hexagon;perimeter=hexagonPerimeter2;whiteSpace=wrap;html=1;fixedSize=1;fillColor=#f8cecc;strokeColor=#b85450;fontSize=16;" vertex="1" parent="8HwspOPLJ6-Ykaj-4gRC-204">
          <mxGeometry width="120" height="80" as="geometry" />
        </mxCell>
        <mxCell id="8HwspOPLJ6-Ykaj-4gRC-207" value="" style="group" vertex="1" connectable="0" parent="1">
          <mxGeometry x="569.75" y="-50" width="205.5" height="100" as="geometry" />
        </mxCell>
        <mxCell id="8HwspOPLJ6-Ykaj-4gRC-208" value="consul_kv" style="ellipse;whiteSpace=wrap;html=1;fillColor=#EDF6FF;" vertex="1" parent="8HwspOPLJ6-Ykaj-4gRC-207">
          <mxGeometry x="115.5" y="50" width="90" height="50" as="geometry" />
        </mxCell>
        <mxCell id="8HwspOPLJ6-Ykaj-4gRC-209" value="APISIX" style="ellipse;shape=cloud;whiteSpace=wrap;html=1;fillColor=#dae8fc;strokeColor=#6c8ebf;" vertex="1" parent="8HwspOPLJ6-Ykaj-4gRC-207">
          <mxGeometry width="175" height="80" as="geometry" />
        </mxCell>
        <mxCell id="8HwspOPLJ6-Ykaj-4gRC-210" value="ЦОД #2" style="text;html=1;align=center;verticalAlign=middle;whiteSpace=wrap;rounded=0;" vertex="1" parent="1">
          <mxGeometry x="569.75" y="-80" width="60" height="30" as="geometry" />
        </mxCell>
        <mxCell id="8HwspOPLJ6-Ykaj-4gRC-211" style="edgeStyle=orthogonalEdgeStyle;rounded=0;orthogonalLoop=1;jettySize=auto;html=1;exitX=0.5;exitY=1;exitDx=0;exitDy=0;entryX=0.5;entryY=0;entryDx=0;entryDy=0;entryPerimeter=0;strokeColor=#009900;" edge="1" parent="1" source="8HwspOPLJ6-Ykaj-4gRC-184" target="8HwspOPLJ6-Ykaj-4gRC-195">
          <mxGeometry relative="1" as="geometry" />
        </mxCell>
        <mxCell id="8HwspOPLJ6-Ykaj-4gRC-212" style="edgeStyle=orthogonalEdgeStyle;shape=connector;rounded=0;orthogonalLoop=1;jettySize=auto;html=1;exitX=0.75;exitY=1;exitDx=0;exitDy=0;entryX=0.625;entryY=0;entryDx=0;entryDy=0;strokeColor=#FF6666;align=center;verticalAlign=middle;fontFamily=Helvetica;fontSize=11;fontColor=default;labelBackgroundColor=default;endArrow=classic;" edge="1" parent="1" source="8HwspOPLJ6-Ykaj-4gRC-184" target="8HwspOPLJ6-Ykaj-4gRC-206">
          <mxGeometry relative="1" as="geometry" />
        </mxCell>
        <mxCell id="8HwspOPLJ6-Ykaj-4gRC-213" style="edgeStyle=orthogonalEdgeStyle;shape=connector;rounded=0;orthogonalLoop=1;jettySize=auto;html=1;exitX=0.75;exitY=1;exitDx=0;exitDy=0;entryX=0.625;entryY=0;entryDx=0;entryDy=0;strokeColor=#FF6666;align=center;verticalAlign=middle;fontFamily=Helvetica;fontSize=11;fontColor=default;labelBackgroundColor=default;endArrow=classic;" edge="1" parent="1" source="8HwspOPLJ6-Ykaj-4gRC-188" target="8HwspOPLJ6-Ykaj-4gRC-206">
          <mxGeometry relative="1" as="geometry" />
        </mxCell>
        <mxCell id="8HwspOPLJ6-Ykaj-4gRC-214" style="edgeStyle=orthogonalEdgeStyle;shape=connector;rounded=0;orthogonalLoop=1;jettySize=auto;html=1;exitX=0.25;exitY=1;exitDx=0;exitDy=0;entryX=0.625;entryY=0;entryDx=0;entryDy=0;strokeColor=#FF6666;align=center;verticalAlign=middle;fontFamily=Helvetica;fontSize=11;fontColor=default;labelBackgroundColor=default;endArrow=classic;" edge="1" parent="1" source="8HwspOPLJ6-Ykaj-4gRC-192" target="8HwspOPLJ6-Ykaj-4gRC-206">
          <mxGeometry relative="1" as="geometry" />
        </mxCell>
        <mxCell id="8HwspOPLJ6-Ykaj-4gRC-215" style="edgeStyle=orthogonalEdgeStyle;shape=connector;rounded=0;orthogonalLoop=1;jettySize=auto;html=1;exitX=0;exitY=0.5;exitDx=0;exitDy=0;exitPerimeter=0;entryX=0.145;entryY=0;entryDx=0;entryDy=4.35;entryPerimeter=0;strokeColor=#009900;align=center;verticalAlign=middle;fontFamily=Helvetica;fontSize=11;fontColor=default;labelBackgroundColor=default;endArrow=classic;startArrow=classic;startFill=1;dashed=1;" edge="1" parent="1" source="8HwspOPLJ6-Ykaj-4gRC-195" target="8HwspOPLJ6-Ykaj-4gRC-203">
          <mxGeometry relative="1" as="geometry" />
        </mxCell>
        <mxCell id="8HwspOPLJ6-Ykaj-4gRC-216" style="edgeStyle=orthogonalEdgeStyle;shape=connector;rounded=0;orthogonalLoop=1;jettySize=auto;html=1;exitX=1;exitY=0.5;exitDx=0;exitDy=0;exitPerimeter=0;entryX=0.855;entryY=0;entryDx=0;entryDy=4.35;entryPerimeter=0;strokeColor=#009900;align=center;verticalAlign=middle;fontFamily=Helvetica;fontSize=11;fontColor=default;labelBackgroundColor=default;endArrow=classic;" edge="1" parent="1" source="8HwspOPLJ6-Ykaj-4gRC-195" target="8HwspOPLJ6-Ykaj-4gRC-199">
          <mxGeometry relative="1" as="geometry" />
        </mxCell>
        <mxCell id="8HwspOPLJ6-Ykaj-4gRC-217" style="edgeStyle=orthogonalEdgeStyle;shape=connector;rounded=0;orthogonalLoop=1;jettySize=auto;html=1;exitX=1;exitY=0.5;exitDx=0;exitDy=0;exitPerimeter=0;entryX=1;entryY=0.5;entryDx=0;entryDy=0;entryPerimeter=0;strokeColor=#009900;align=center;verticalAlign=middle;fontFamily=Helvetica;fontSize=11;fontColor=default;labelBackgroundColor=default;endArrow=classic;" edge="1" parent="1" source="8HwspOPLJ6-Ykaj-4gRC-195" target="8HwspOPLJ6-Ykaj-4gRC-198">
          <mxGeometry relative="1" as="geometry">
            <Array as="points">
              <mxPoint x="848.4300000000001" y="380" />
              <mxPoint x="848.4300000000001" y="530" />
            </Array>
          </mxGeometry>
        </mxCell>
        <mxCell id="8HwspOPLJ6-Ykaj-4gRC-218" style="edgeStyle=orthogonalEdgeStyle;shape=connector;rounded=0;orthogonalLoop=1;jettySize=auto;html=1;exitX=0.55;exitY=0.95;exitDx=0;exitDy=0;exitPerimeter=0;entryX=0.5;entryY=0;entryDx=0;entryDy=0;strokeColor=#3399FF;align=center;verticalAlign=middle;fontFamily=Helvetica;fontSize=11;fontColor=default;labelBackgroundColor=default;endArrow=classic;" edge="1" parent="1" source="8HwspOPLJ6-Ykaj-4gRC-209" target="8HwspOPLJ6-Ykaj-4gRC-185">
          <mxGeometry relative="1" as="geometry" />
        </mxCell>
        <mxCell id="8HwspOPLJ6-Ykaj-4gRC-219" style="edgeStyle=orthogonalEdgeStyle;shape=connector;rounded=0;orthogonalLoop=1;jettySize=auto;html=1;exitX=0.55;exitY=0.95;exitDx=0;exitDy=0;exitPerimeter=0;entryX=0.5;entryY=0;entryDx=0;entryDy=0;strokeColor=#3399FF;align=center;verticalAlign=middle;fontFamily=Helvetica;fontSize=11;fontColor=default;labelBackgroundColor=default;endArrow=classic;" edge="1" parent="1" source="8HwspOPLJ6-Ykaj-4gRC-209" target="8HwspOPLJ6-Ykaj-4gRC-189">
          <mxGeometry relative="1" as="geometry" />
        </mxCell>
        <mxCell id="8HwspOPLJ6-Ykaj-4gRC-220" style="edgeStyle=orthogonalEdgeStyle;shape=connector;curved=1;rounded=0;orthogonalLoop=1;jettySize=auto;html=1;exitX=1;exitY=0.5;exitDx=0;exitDy=0;entryX=0;entryY=0.5;entryDx=0;entryDy=0;strokeColor=#3399FF;align=center;verticalAlign=middle;fontFamily=Helvetica;fontSize=11;fontColor=default;labelBackgroundColor=default;endArrow=classic;dashed=1;" edge="1" parent="1" source="8HwspOPLJ6-Ykaj-4gRC-208" target="8HwspOPLJ6-Ykaj-4gRC-194">
          <mxGeometry relative="1" as="geometry" />
        </mxCell>
        <mxCell id="8HwspOPLJ6-Ykaj-4gRC-221" style="edgeStyle=orthogonalEdgeStyle;shape=connector;rounded=0;orthogonalLoop=1;jettySize=auto;html=1;exitX=0.75;exitY=0;exitDx=0;exitDy=0;entryX=0.5;entryY=1;entryDx=0;entryDy=0;strokeColor=#3399FF;align=center;verticalAlign=middle;fontFamily=Helvetica;fontSize=11;fontColor=default;labelBackgroundColor=default;endArrow=classic;dashed=1;elbow=vertical;" edge="1" parent="1" source="8HwspOPLJ6-Ykaj-4gRC-185" target="8HwspOPLJ6-Ykaj-4gRC-194">
          <mxGeometry relative="1" as="geometry" />
        </mxCell>
        <mxCell id="8HwspOPLJ6-Ykaj-4gRC-222" style="edgeStyle=orthogonalEdgeStyle;shape=connector;rounded=0;orthogonalLoop=1;jettySize=auto;html=1;exitX=0.75;exitY=0;exitDx=0;exitDy=0;entryX=0.5;entryY=1;entryDx=0;entryDy=0;dashed=1;strokeColor=#3399FF;align=center;verticalAlign=middle;fontFamily=Helvetica;fontSize=11;fontColor=default;labelBackgroundColor=default;endArrow=classic;" edge="1" parent="1" source="8HwspOPLJ6-Ykaj-4gRC-189" target="8HwspOPLJ6-Ykaj-4gRC-194">
          <mxGeometry relative="1" as="geometry" />
        </mxCell>
        <mxCell id="8HwspOPLJ6-Ykaj-4gRC-223" style="edgeStyle=orthogonalEdgeStyle;shape=connector;rounded=0;orthogonalLoop=1;jettySize=auto;html=1;exitX=0.75;exitY=0;exitDx=0;exitDy=0;entryX=0.5;entryY=1;entryDx=0;entryDy=0;dashed=1;strokeColor=#3399FF;align=center;verticalAlign=middle;fontFamily=Helvetica;fontSize=11;fontColor=default;labelBackgroundColor=default;endArrow=classic;" edge="1" parent="1" source="8HwspOPLJ6-Ykaj-4gRC-193" target="8HwspOPLJ6-Ykaj-4gRC-194">
          <mxGeometry relative="1" as="geometry" />
        </mxCell>
        <mxCell id="8HwspOPLJ6-Ykaj-4gRC-224" style="edgeStyle=orthogonalEdgeStyle;shape=connector;rounded=0;orthogonalLoop=1;jettySize=auto;html=1;exitX=0.55;exitY=0.95;exitDx=0;exitDy=0;exitPerimeter=0;entryX=0.5;entryY=0;entryDx=0;entryDy=0;strokeColor=#3399FF;align=center;verticalAlign=middle;fontFamily=Helvetica;fontSize=11;fontColor=default;labelBackgroundColor=default;endArrow=classic;" edge="1" parent="1" source="8HwspOPLJ6-Ykaj-4gRC-209" target="8HwspOPLJ6-Ykaj-4gRC-193">
          <mxGeometry relative="1" as="geometry">
            <Array as="points">
              <mxPoint x="666.4300000000001" y="80" />
              <mxPoint x="908.4300000000001" y="80" />
            </Array>
          </mxGeometry>
        </mxCell>
        <mxCell id="8HwspOPLJ6-Ykaj-4gRC-225" value="" style="rounded=1;whiteSpace=wrap;html=1;arcSize=3;opacity=70;" vertex="1" parent="1">
          <mxGeometry x="1008.68" y="-80" width="430" height="770" as="geometry" />
        </mxCell>
        <mxCell id="8HwspOPLJ6-Ykaj-4gRC-226" value="" style="group" vertex="1" connectable="0" parent="1">
          <mxGeometry x="1028.6799999999998" y="130" width="120" height="80" as="geometry" />
        </mxCell>
        <mxCell id="8HwspOPLJ6-Ykaj-4gRC-227" value="mongodb driver" style="rounded=1;whiteSpace=wrap;html=1;spacingTop=8;" vertex="1" parent="8HwspOPLJ6-Ykaj-4gRC-226">
          <mxGeometry y="50" width="120" height="30" as="geometry" />
        </mxCell>
        <mxCell id="8HwspOPLJ6-Ykaj-4gRC-228" value="pymongo-api" style="rounded=1;whiteSpace=wrap;html=1;" vertex="1" parent="8HwspOPLJ6-Ykaj-4gRC-226">
          <mxGeometry width="120" height="60" as="geometry" />
        </mxCell>
        <mxCell id="8HwspOPLJ6-Ykaj-4gRC-229" value="" style="group" vertex="1" connectable="0" parent="1">
          <mxGeometry x="1159.34" y="130" width="120" height="80" as="geometry" />
        </mxCell>
        <mxCell id="8HwspOPLJ6-Ykaj-4gRC-230" style="edgeStyle=orthogonalEdgeStyle;shape=connector;rounded=0;orthogonalLoop=1;jettySize=auto;html=1;exitX=0.5;exitY=1;exitDx=0;exitDy=0;strokeColor=#009900;align=center;verticalAlign=middle;fontFamily=Helvetica;fontSize=11;fontColor=default;labelBackgroundColor=default;endArrow=classic;" edge="1" parent="8HwspOPLJ6-Ykaj-4gRC-229" source="8HwspOPLJ6-Ykaj-4gRC-231">
          <mxGeometry relative="1" as="geometry">
            <mxPoint x="-0.6599999999995134" y="210" as="targetPoint" />
          </mxGeometry>
        </mxCell>
        <mxCell id="8HwspOPLJ6-Ykaj-4gRC-231" value="mongodb driver" style="rounded=1;whiteSpace=wrap;html=1;spacingTop=8;" vertex="1" parent="8HwspOPLJ6-Ykaj-4gRC-229">
          <mxGeometry y="50" width="120" height="30" as="geometry" />
        </mxCell>
        <mxCell id="8HwspOPLJ6-Ykaj-4gRC-232" value="pymongo-api" style="rounded=1;whiteSpace=wrap;html=1;" vertex="1" parent="8HwspOPLJ6-Ykaj-4gRC-229">
          <mxGeometry width="120" height="60" as="geometry" />
        </mxCell>
        <mxCell id="8HwspOPLJ6-Ykaj-4gRC-233" value="" style="group" vertex="1" connectable="0" parent="1">
          <mxGeometry x="1288.6799999999998" y="130" width="120" height="80" as="geometry" />
        </mxCell>
        <mxCell id="8HwspOPLJ6-Ykaj-4gRC-234" style="edgeStyle=orthogonalEdgeStyle;shape=connector;rounded=0;orthogonalLoop=1;jettySize=auto;html=1;exitX=0.5;exitY=1;exitDx=0;exitDy=0;strokeColor=#009900;align=center;verticalAlign=middle;fontFamily=Helvetica;fontSize=11;fontColor=default;labelBackgroundColor=default;endArrow=classic;" edge="1" parent="8HwspOPLJ6-Ykaj-4gRC-233" source="8HwspOPLJ6-Ykaj-4gRC-235">
          <mxGeometry relative="1" as="geometry">
            <mxPoint x="-129.99999999999955" y="210" as="targetPoint" />
          </mxGeometry>
        </mxCell>
        <mxCell id="8HwspOPLJ6-Ykaj-4gRC-235" value="mongodb driver" style="rounded=1;whiteSpace=wrap;html=1;spacingTop=8;" vertex="1" parent="8HwspOPLJ6-Ykaj-4gRC-233">
          <mxGeometry y="50" width="120" height="30" as="geometry" />
        </mxCell>
        <mxCell id="8HwspOPLJ6-Ykaj-4gRC-236" value="pymongo-api" style="rounded=1;whiteSpace=wrap;html=1;" vertex="1" parent="8HwspOPLJ6-Ykaj-4gRC-233">
          <mxGeometry width="120" height="60" as="geometry" />
        </mxCell>
        <mxCell id="8HwspOPLJ6-Ykaj-4gRC-237" value="Consul" style="rounded=1;whiteSpace=wrap;html=1;fillColor=#EDF6FF;" vertex="1" parent="1">
          <mxGeometry x="1298.6799999999998" y="-5" width="120" height="60" as="geometry" />
        </mxCell>
        <mxCell id="8HwspOPLJ6-Ykaj-4gRC-238" value="MongoDB&lt;div&gt;Router&lt;/div&gt;&lt;div&gt;&lt;br&gt;&lt;/div&gt;&lt;div&gt;&lt;br&gt;&lt;/div&gt;" style="shape=cylinder3;whiteSpace=wrap;html=1;boundedLbl=1;backgroundOutline=1;size=15;fillColor=#78B381;strokeColor=#82b366;fontColor=#FFFFFF;fontSize=14;spacingTop=19;container=0;" vertex="1" parent="1">
          <mxGeometry x="1108.681052631579" y="340" width="101.3157894736842" height="80" as="geometry" />
        </mxCell>
        <mxCell id="8HwspOPLJ6-Ykaj-4gRC-239" value="" style="group;fontColor=#CCCCCC;" vertex="1" connectable="0" parent="1">
          <mxGeometry x="1178.024736842105" y="440" width="101.31578947368422" height="180" as="geometry" />
        </mxCell>
        <mxCell id="8HwspOPLJ6-Ykaj-4gRC-240" value="MongoDB&lt;div&gt;Secondary&lt;/div&gt;" style="shape=cylinder3;whiteSpace=wrap;html=1;boundedLbl=1;backgroundOutline=1;size=15;fillColor=none;strokeColor=#82b366;fontColor=#B3B3B3;fontSize=14;container=0;" vertex="1" parent="8HwspOPLJ6-Ykaj-4gRC-239">
          <mxGeometry y="100" width="101.3157894736842" height="80" as="geometry" />
        </mxCell>
        <mxCell id="8HwspOPLJ6-Ykaj-4gRC-241" value="MongoDB&lt;div&gt;Secondary&lt;/div&gt;" style="shape=cylinder3;whiteSpace=wrap;html=1;boundedLbl=1;backgroundOutline=1;size=15;fillColor=#B5DFB9;strokeColor=#82b366;fontColor=#FFFFFF;fontSize=14;container=0;" vertex="1" parent="8HwspOPLJ6-Ykaj-4gRC-239">
          <mxGeometry y="50" width="101.3157894736842" height="80" as="geometry" />
        </mxCell>
        <mxCell id="8HwspOPLJ6-Ykaj-4gRC-242" value="MongoDB&lt;div&gt;Primary&lt;/div&gt;" style="shape=cylinder3;whiteSpace=wrap;html=1;boundedLbl=1;backgroundOutline=1;size=15;fillColor=#78B381;strokeColor=#82b366;fontColor=#FFFFFF;fontSize=14;container=0;" vertex="1" parent="8HwspOPLJ6-Ykaj-4gRC-239">
          <mxGeometry width="101.3157894736842" height="80" as="geometry" />
        </mxCell>
        <mxCell id="8HwspOPLJ6-Ykaj-4gRC-243" value="" style="group" vertex="1" connectable="0" parent="1">
          <mxGeometry x="1028.6821052631578" y="440" width="101.31578947368422" height="180" as="geometry" />
        </mxCell>
        <mxCell id="8HwspOPLJ6-Ykaj-4gRC-244" value="MDB Config Secondary" style="shape=cylinder3;whiteSpace=wrap;html=1;boundedLbl=1;backgroundOutline=1;size=15;fillColor=none;strokeColor=#82b366;fontColor=#B3B3B3;fontSize=14;spacingTop=-3;container=0;" vertex="1" parent="8HwspOPLJ6-Ykaj-4gRC-243">
          <mxGeometry y="100" width="101.3157894736842" height="80" as="geometry" />
        </mxCell>
        <mxCell id="8HwspOPLJ6-Ykaj-4gRC-245" value="MDB Config Secondary" style="shape=cylinder3;whiteSpace=wrap;html=1;boundedLbl=1;backgroundOutline=1;size=15;fillColor=#B5DFB9;strokeColor=#82b366;fontColor=#FFFFFF;fontSize=14;spacingTop=-3;container=0;" vertex="1" parent="8HwspOPLJ6-Ykaj-4gRC-243">
          <mxGeometry y="50" width="101.3157894736842" height="80" as="geometry" />
        </mxCell>
        <mxCell id="8HwspOPLJ6-Ykaj-4gRC-246" value="MongoDB&lt;div&gt;Config Server Primary&lt;/div&gt;" style="shape=cylinder3;whiteSpace=wrap;html=1;boundedLbl=1;backgroundOutline=1;size=15;fillColor=#78B381;strokeColor=#82b366;fontColor=#FFFFFF;fontSize=14;spacingTop=-3;container=0;" vertex="1" parent="8HwspOPLJ6-Ykaj-4gRC-243">
          <mxGeometry width="101.3157894736842" height="80" as="geometry" />
        </mxCell>
        <mxCell id="8HwspOPLJ6-Ykaj-4gRC-247" value="" style="group" vertex="1" connectable="0" parent="1">
          <mxGeometry x="1298.6799999999998" y="294" width="120" height="120" as="geometry" />
        </mxCell>
        <mxCell id="8HwspOPLJ6-Ykaj-4gRC-248" value="Redis&lt;div&gt;Slave&lt;/div&gt;" style="shape=hexagon;perimeter=hexagonPerimeter2;whiteSpace=wrap;html=1;fixedSize=1;fillColor=#F8E4E2;strokeColor=#b85450;fontSize=16;" vertex="1" parent="8HwspOPLJ6-Ykaj-4gRC-247">
          <mxGeometry y="40" width="120" height="80" as="geometry" />
        </mxCell>
        <mxCell id="8HwspOPLJ6-Ykaj-4gRC-249" value="Redis&lt;div&gt;Master&lt;/div&gt;" style="shape=hexagon;perimeter=hexagonPerimeter2;whiteSpace=wrap;html=1;fixedSize=1;fillColor=#f8cecc;strokeColor=#b85450;fontSize=16;" vertex="1" parent="8HwspOPLJ6-Ykaj-4gRC-247">
          <mxGeometry width="120" height="80" as="geometry" />
        </mxCell>
        <mxCell id="8HwspOPLJ6-Ykaj-4gRC-250" value="" style="group" vertex="1" connectable="0" parent="1">
          <mxGeometry x="1010" y="-50" width="205.5" height="100" as="geometry" />
        </mxCell>
        <mxCell id="8HwspOPLJ6-Ykaj-4gRC-251" value="consul_kv" style="ellipse;whiteSpace=wrap;html=1;fillColor=#EDF6FF;" vertex="1" parent="8HwspOPLJ6-Ykaj-4gRC-250">
          <mxGeometry x="115.5" y="50" width="90" height="50" as="geometry" />
        </mxCell>
        <mxCell id="8HwspOPLJ6-Ykaj-4gRC-252" value="APISIX" style="ellipse;shape=cloud;whiteSpace=wrap;html=1;fillColor=#dae8fc;strokeColor=#6c8ebf;" vertex="1" parent="8HwspOPLJ6-Ykaj-4gRC-250">
          <mxGeometry width="175" height="80" as="geometry" />
        </mxCell>
        <mxCell id="8HwspOPLJ6-Ykaj-4gRC-253" value="ЦОД #3" style="text;html=1;align=center;verticalAlign=middle;whiteSpace=wrap;rounded=0;" vertex="1" parent="1">
          <mxGeometry x="1010" y="-80" width="60" height="30" as="geometry" />
        </mxCell>
        <mxCell id="8HwspOPLJ6-Ykaj-4gRC-254" style="edgeStyle=orthogonalEdgeStyle;rounded=0;orthogonalLoop=1;jettySize=auto;html=1;exitX=0.5;exitY=1;exitDx=0;exitDy=0;entryX=0.5;entryY=0;entryDx=0;entryDy=0;entryPerimeter=0;strokeColor=#009900;" edge="1" parent="1" source="8HwspOPLJ6-Ykaj-4gRC-227" target="8HwspOPLJ6-Ykaj-4gRC-238">
          <mxGeometry relative="1" as="geometry" />
        </mxCell>
        <mxCell id="8HwspOPLJ6-Ykaj-4gRC-255" style="edgeStyle=orthogonalEdgeStyle;shape=connector;rounded=0;orthogonalLoop=1;jettySize=auto;html=1;exitX=0.75;exitY=1;exitDx=0;exitDy=0;entryX=0.625;entryY=0;entryDx=0;entryDy=0;strokeColor=#FF6666;align=center;verticalAlign=middle;fontFamily=Helvetica;fontSize=11;fontColor=default;labelBackgroundColor=default;endArrow=classic;" edge="1" parent="1" source="8HwspOPLJ6-Ykaj-4gRC-227" target="8HwspOPLJ6-Ykaj-4gRC-249">
          <mxGeometry relative="1" as="geometry" />
        </mxCell>
        <mxCell id="8HwspOPLJ6-Ykaj-4gRC-256" style="edgeStyle=orthogonalEdgeStyle;shape=connector;rounded=0;orthogonalLoop=1;jettySize=auto;html=1;exitX=0.75;exitY=1;exitDx=0;exitDy=0;entryX=0.625;entryY=0;entryDx=0;entryDy=0;strokeColor=#FF6666;align=center;verticalAlign=middle;fontFamily=Helvetica;fontSize=11;fontColor=default;labelBackgroundColor=default;endArrow=classic;" edge="1" parent="1" source="8HwspOPLJ6-Ykaj-4gRC-231" target="8HwspOPLJ6-Ykaj-4gRC-249">
          <mxGeometry relative="1" as="geometry" />
        </mxCell>
        <mxCell id="8HwspOPLJ6-Ykaj-4gRC-257" style="edgeStyle=orthogonalEdgeStyle;shape=connector;rounded=0;orthogonalLoop=1;jettySize=auto;html=1;exitX=0.25;exitY=1;exitDx=0;exitDy=0;entryX=0.625;entryY=0;entryDx=0;entryDy=0;strokeColor=#FF6666;align=center;verticalAlign=middle;fontFamily=Helvetica;fontSize=11;fontColor=default;labelBackgroundColor=default;endArrow=classic;" edge="1" parent="1" source="8HwspOPLJ6-Ykaj-4gRC-235" target="8HwspOPLJ6-Ykaj-4gRC-249">
          <mxGeometry relative="1" as="geometry" />
        </mxCell>
        <mxCell id="8HwspOPLJ6-Ykaj-4gRC-258" style="edgeStyle=orthogonalEdgeStyle;shape=connector;rounded=0;orthogonalLoop=1;jettySize=auto;html=1;exitX=0;exitY=0.5;exitDx=0;exitDy=0;exitPerimeter=0;entryX=0.145;entryY=0;entryDx=0;entryDy=4.35;entryPerimeter=0;strokeColor=#009900;align=center;verticalAlign=middle;fontFamily=Helvetica;fontSize=11;fontColor=default;labelBackgroundColor=default;endArrow=classic;startArrow=classic;startFill=1;dashed=1;" edge="1" parent="1" source="8HwspOPLJ6-Ykaj-4gRC-238" target="8HwspOPLJ6-Ykaj-4gRC-246">
          <mxGeometry relative="1" as="geometry" />
        </mxCell>
        <mxCell id="8HwspOPLJ6-Ykaj-4gRC-259" style="edgeStyle=orthogonalEdgeStyle;shape=connector;rounded=0;orthogonalLoop=1;jettySize=auto;html=1;exitX=1;exitY=0.5;exitDx=0;exitDy=0;exitPerimeter=0;entryX=0.855;entryY=0;entryDx=0;entryDy=4.35;entryPerimeter=0;strokeColor=#009900;align=center;verticalAlign=middle;fontFamily=Helvetica;fontSize=11;fontColor=default;labelBackgroundColor=default;endArrow=classic;" edge="1" parent="1" source="8HwspOPLJ6-Ykaj-4gRC-238" target="8HwspOPLJ6-Ykaj-4gRC-242">
          <mxGeometry relative="1" as="geometry" />
        </mxCell>
        <mxCell id="8HwspOPLJ6-Ykaj-4gRC-260" style="edgeStyle=orthogonalEdgeStyle;shape=connector;rounded=0;orthogonalLoop=1;jettySize=auto;html=1;exitX=1;exitY=0.5;exitDx=0;exitDy=0;exitPerimeter=0;entryX=1;entryY=0.5;entryDx=0;entryDy=0;entryPerimeter=0;strokeColor=#009900;align=center;verticalAlign=middle;fontFamily=Helvetica;fontSize=11;fontColor=default;labelBackgroundColor=default;endArrow=classic;" edge="1" parent="1" source="8HwspOPLJ6-Ykaj-4gRC-238" target="8HwspOPLJ6-Ykaj-4gRC-241">
          <mxGeometry relative="1" as="geometry">
            <Array as="points">
              <mxPoint x="1288.6799999999998" y="380" />
              <mxPoint x="1288.6799999999998" y="530" />
            </Array>
          </mxGeometry>
        </mxCell>
        <mxCell id="8HwspOPLJ6-Ykaj-4gRC-261" style="edgeStyle=orthogonalEdgeStyle;shape=connector;rounded=0;orthogonalLoop=1;jettySize=auto;html=1;exitX=0.55;exitY=0.95;exitDx=0;exitDy=0;exitPerimeter=0;entryX=0.5;entryY=0;entryDx=0;entryDy=0;strokeColor=#3399FF;align=center;verticalAlign=middle;fontFamily=Helvetica;fontSize=11;fontColor=default;labelBackgroundColor=default;endArrow=classic;" edge="1" parent="1" source="8HwspOPLJ6-Ykaj-4gRC-252" target="8HwspOPLJ6-Ykaj-4gRC-228">
          <mxGeometry relative="1" as="geometry" />
        </mxCell>
        <mxCell id="8HwspOPLJ6-Ykaj-4gRC-262" style="edgeStyle=orthogonalEdgeStyle;shape=connector;rounded=0;orthogonalLoop=1;jettySize=auto;html=1;exitX=0.55;exitY=0.95;exitDx=0;exitDy=0;exitPerimeter=0;entryX=0.5;entryY=0;entryDx=0;entryDy=0;strokeColor=#3399FF;align=center;verticalAlign=middle;fontFamily=Helvetica;fontSize=11;fontColor=default;labelBackgroundColor=default;endArrow=classic;" edge="1" parent="1" source="8HwspOPLJ6-Ykaj-4gRC-252" target="8HwspOPLJ6-Ykaj-4gRC-232">
          <mxGeometry relative="1" as="geometry" />
        </mxCell>
        <mxCell id="8HwspOPLJ6-Ykaj-4gRC-263" style="edgeStyle=orthogonalEdgeStyle;shape=connector;curved=1;rounded=0;orthogonalLoop=1;jettySize=auto;html=1;exitX=1;exitY=0.5;exitDx=0;exitDy=0;entryX=0;entryY=0.5;entryDx=0;entryDy=0;strokeColor=#3399FF;align=center;verticalAlign=middle;fontFamily=Helvetica;fontSize=11;fontColor=default;labelBackgroundColor=default;endArrow=classic;dashed=1;" edge="1" parent="1" source="8HwspOPLJ6-Ykaj-4gRC-251" target="8HwspOPLJ6-Ykaj-4gRC-237">
          <mxGeometry relative="1" as="geometry" />
        </mxCell>
        <mxCell id="8HwspOPLJ6-Ykaj-4gRC-264" style="edgeStyle=orthogonalEdgeStyle;shape=connector;rounded=0;orthogonalLoop=1;jettySize=auto;html=1;exitX=0.75;exitY=0;exitDx=0;exitDy=0;entryX=0.5;entryY=1;entryDx=0;entryDy=0;strokeColor=#3399FF;align=center;verticalAlign=middle;fontFamily=Helvetica;fontSize=11;fontColor=default;labelBackgroundColor=default;endArrow=classic;dashed=1;elbow=vertical;" edge="1" parent="1" source="8HwspOPLJ6-Ykaj-4gRC-228" target="8HwspOPLJ6-Ykaj-4gRC-237">
          <mxGeometry relative="1" as="geometry" />
        </mxCell>
        <mxCell id="8HwspOPLJ6-Ykaj-4gRC-265" style="edgeStyle=orthogonalEdgeStyle;shape=connector;rounded=0;orthogonalLoop=1;jettySize=auto;html=1;exitX=0.75;exitY=0;exitDx=0;exitDy=0;entryX=0.5;entryY=1;entryDx=0;entryDy=0;dashed=1;strokeColor=#3399FF;align=center;verticalAlign=middle;fontFamily=Helvetica;fontSize=11;fontColor=default;labelBackgroundColor=default;endArrow=classic;" edge="1" parent="1" source="8HwspOPLJ6-Ykaj-4gRC-232" target="8HwspOPLJ6-Ykaj-4gRC-237">
          <mxGeometry relative="1" as="geometry" />
        </mxCell>
        <mxCell id="8HwspOPLJ6-Ykaj-4gRC-266" style="edgeStyle=orthogonalEdgeStyle;shape=connector;rounded=0;orthogonalLoop=1;jettySize=auto;html=1;exitX=0.75;exitY=0;exitDx=0;exitDy=0;entryX=0.5;entryY=1;entryDx=0;entryDy=0;dashed=1;strokeColor=#3399FF;align=center;verticalAlign=middle;fontFamily=Helvetica;fontSize=11;fontColor=default;labelBackgroundColor=default;endArrow=classic;" edge="1" parent="1" source="8HwspOPLJ6-Ykaj-4gRC-236" target="8HwspOPLJ6-Ykaj-4gRC-237">
          <mxGeometry relative="1" as="geometry" />
        </mxCell>
        <mxCell id="8HwspOPLJ6-Ykaj-4gRC-267" style="edgeStyle=orthogonalEdgeStyle;shape=connector;rounded=0;orthogonalLoop=1;jettySize=auto;html=1;exitX=0.55;exitY=0.95;exitDx=0;exitDy=0;exitPerimeter=0;entryX=0.5;entryY=0;entryDx=0;entryDy=0;strokeColor=#3399FF;align=center;verticalAlign=middle;fontFamily=Helvetica;fontSize=11;fontColor=default;labelBackgroundColor=default;endArrow=classic;" edge="1" parent="1" source="8HwspOPLJ6-Ykaj-4gRC-252" target="8HwspOPLJ6-Ykaj-4gRC-236">
          <mxGeometry relative="1" as="geometry">
            <Array as="points">
              <mxPoint x="1106.6799999999998" y="80" />
              <mxPoint x="1348.6799999999998" y="80" />
            </Array>
          </mxGeometry>
        </mxCell>
        <mxCell id="8HwspOPLJ6-Ykaj-4gRC-268" style="edgeStyle=orthogonalEdgeStyle;shape=connector;rounded=0;orthogonalLoop=1;jettySize=auto;html=1;exitX=0.5;exitY=1;exitDx=0;exitDy=0;entryX=0.5;entryY=1;entryDx=0;entryDy=0;strokeColor=#FF6666;align=center;verticalAlign=middle;fontFamily=Helvetica;fontSize=11;fontColor=default;labelBackgroundColor=default;endArrow=classic;startArrow=classic;startFill=1;dashed=1;" edge="1" parent="1" source="8HwspOPLJ6-Ykaj-4gRC-30" target="8HwspOPLJ6-Ykaj-4gRC-205">
          <mxGeometry relative="1" as="geometry">
            <Array as="points">
              <mxPoint x="480" y="650" />
              <mxPoint x="918" y="650" />
              <mxPoint x="918" y="414" />
            </Array>
          </mxGeometry>
        </mxCell>
        <mxCell id="8HwspOPLJ6-Ykaj-4gRC-270" style="edgeStyle=orthogonalEdgeStyle;shape=connector;rounded=0;orthogonalLoop=1;jettySize=auto;html=1;exitX=0.5;exitY=1;exitDx=0;exitDy=0;entryX=0.535;entryY=1.005;entryDx=0;entryDy=0;entryPerimeter=0;dashed=1;strokeColor=#FF6666;align=center;verticalAlign=middle;fontFamily=Helvetica;fontSize=11;fontColor=default;labelBackgroundColor=default;startArrow=classic;startFill=1;endArrow=classic;" edge="1" parent="1" source="8HwspOPLJ6-Ykaj-4gRC-205" target="8HwspOPLJ6-Ykaj-4gRC-248">
          <mxGeometry relative="1" as="geometry">
            <Array as="points">
              <mxPoint x="918" y="650" />
              <mxPoint x="1363" y="650" />
            </Array>
          </mxGeometry>
        </mxCell>
        <mxCell id="8HwspOPLJ6-Ykaj-4gRC-271" style="edgeStyle=orthogonalEdgeStyle;shape=connector;rounded=0;orthogonalLoop=1;jettySize=auto;html=1;exitX=0.5;exitY=1;exitDx=0;exitDy=0;exitPerimeter=0;entryX=0.5;entryY=1;entryDx=0;entryDy=0;entryPerimeter=0;dashed=1;strokeColor=#009900;align=center;verticalAlign=middle;fontFamily=Helvetica;fontSize=11;fontColor=default;labelBackgroundColor=default;startArrow=classic;startFill=1;endArrow=classic;" edge="1" parent="1" source="_CsFHggYIHRbgl_CoFxa-4" target="8HwspOPLJ6-Ykaj-4gRC-195">
          <mxGeometry relative="1" as="geometry">
            <Array as="points">
              <mxPoint x="281" y="660" />
              <mxPoint x="719" y="660" />
            </Array>
          </mxGeometry>
        </mxCell>
        <mxCell id="8HwspOPLJ6-Ykaj-4gRC-272" style="edgeStyle=orthogonalEdgeStyle;shape=connector;rounded=0;orthogonalLoop=1;jettySize=auto;html=1;exitX=0.5;exitY=1;exitDx=0;exitDy=0;exitPerimeter=0;entryX=0.5;entryY=1;entryDx=0;entryDy=0;entryPerimeter=0;dashed=1;strokeColor=#009900;align=center;verticalAlign=middle;fontFamily=Helvetica;fontSize=11;fontColor=default;labelBackgroundColor=default;startArrow=classic;startFill=1;endArrow=classic;" edge="1" parent="1" source="8HwspOPLJ6-Ykaj-4gRC-195" target="8HwspOPLJ6-Ykaj-4gRC-238">
          <mxGeometry relative="1" as="geometry">
            <Array as="points">
              <mxPoint x="719" y="660" />
              <mxPoint x="1159" y="660" />
            </Array>
          </mxGeometry>
        </mxCell>
        <mxCell id="8HwspOPLJ6-Ykaj-4gRC-273" style="edgeStyle=orthogonalEdgeStyle;shape=connector;rounded=0;orthogonalLoop=1;jettySize=auto;html=1;exitX=0.5;exitY=1;exitDx=0;exitDy=0;exitPerimeter=0;entryX=0.5;entryY=1;entryDx=0;entryDy=0;entryPerimeter=0;dashed=1;strokeColor=#009900;align=center;verticalAlign=middle;fontFamily=Helvetica;fontSize=11;fontColor=default;labelBackgroundColor=default;startArrow=classic;startFill=1;endArrow=classic;" edge="1" parent="1" source="_CsFHggYIHRbgl_CoFxa-64" target="8HwspOPLJ6-Ykaj-4gRC-201">
          <mxGeometry relative="1" as="geometry">
            <Array as="points">
              <mxPoint x="201" y="670" />
              <mxPoint x="639" y="670" />
            </Array>
          </mxGeometry>
        </mxCell>
        <mxCell id="8HwspOPLJ6-Ykaj-4gRC-274" style="edgeStyle=orthogonalEdgeStyle;shape=connector;rounded=0;orthogonalLoop=1;jettySize=auto;html=1;exitX=0.5;exitY=1;exitDx=0;exitDy=0;exitPerimeter=0;entryX=0.5;entryY=1;entryDx=0;entryDy=0;entryPerimeter=0;dashed=1;strokeColor=#009900;align=center;verticalAlign=middle;fontFamily=Helvetica;fontSize=11;fontColor=default;labelBackgroundColor=default;startArrow=classic;startFill=1;endArrow=classic;" edge="1" parent="1" source="8HwspOPLJ6-Ykaj-4gRC-201" target="8HwspOPLJ6-Ykaj-4gRC-244">
          <mxGeometry relative="1" as="geometry">
            <Array as="points">
              <mxPoint x="639" y="670" />
              <mxPoint x="1079" y="670" />
            </Array>
          </mxGeometry>
        </mxCell>
        <mxCell id="8HwspOPLJ6-Ykaj-4gRC-275" value="MDB Shard #1" style="text;html=1;align=center;verticalAlign=middle;whiteSpace=wrap;rounded=0;fontColor=#999999;labelBorderColor=none;textShadow=1;fontSize=14;" vertex="1" parent="1">
          <mxGeometry x="200" y="294" width="150" height="30" as="geometry" />
        </mxCell>
        <mxCell id="8HwspOPLJ6-Ykaj-4gRC-276" value="MDB Shard #2" style="text;html=1;align=center;verticalAlign=middle;whiteSpace=wrap;rounded=0;fontColor=#999999;labelBorderColor=none;textShadow=1;fontSize=14;" vertex="1" parent="1">
          <mxGeometry x="640" y="294" width="150" height="30" as="geometry" />
        </mxCell>
        <mxCell id="8HwspOPLJ6-Ykaj-4gRC-277" value="MDB Shard #3" style="text;html=1;align=center;verticalAlign=middle;whiteSpace=wrap;rounded=0;fontColor=#999999;labelBorderColor=none;textShadow=1;fontSize=14;" vertex="1" parent="1">
          <mxGeometry x="1084.3400000000001" y="300" width="150" height="30" as="geometry" />
        </mxCell>
        <mxCell id="_CsFHggYIHRbgl_CoFxa-75" value="" style="rounded=0;whiteSpace=wrap;html=1;fontFamily=Helvetica;fontSize=11;fontColor=default;labelBackgroundColor=default;" parent="1" vertex="1">
          <mxGeometry x="-100.5" y="730" width="940.5" height="260" as="geometry" />
        </mxCell>
        <mxCell id="_CsFHggYIHRbgl_CoFxa-77" value="&lt;font style=&quot;font-size: 17px;&quot;&gt;Легенда&lt;/font&gt;" style="text;html=1;align=center;verticalAlign=middle;whiteSpace=wrap;rounded=0;fontFamily=Helvetica;fontSize=11;fontColor=default;labelBackgroundColor=default;strokeColor=default;" parent="1" vertex="1">
          <mxGeometry x="-99" y="730" width="90" height="30" as="geometry" />
        </mxCell>
        <mxCell id="_CsFHggYIHRbgl_CoFxa-81" value="&lt;div&gt;&lt;br&gt;&lt;/div&gt;" style="shape=cylinder3;whiteSpace=wrap;html=1;boundedLbl=1;backgroundOutline=1;size=15;fillColor=#FAFDFF;strokeColor=#000000;fontColor=#FFFFFF;fontSize=14;spacingTop=19;container=0;" parent="1" vertex="1">
          <mxGeometry x="-89" y="770" width="70" height="50" as="geometry" />
        </mxCell>
        <mxCell id="_CsFHggYIHRbgl_CoFxa-83" value="Хранилище" style="text;html=1;align=left;verticalAlign=middle;whiteSpace=wrap;rounded=0;fontFamily=Helvetica;fontSize=11;fontColor=default;labelBackgroundColor=default;" parent="1" vertex="1">
          <mxGeometry x="1" y="777" width="100" height="30" as="geometry" />
        </mxCell>
        <mxCell id="_CsFHggYIHRbgl_CoFxa-88" value="" style="edgeStyle=entityRelationEdgeStyle;shape=connector;rounded=0;orthogonalLoop=1;jettySize=auto;html=1;strokeColor=default;align=center;verticalAlign=middle;fontFamily=Helvetica;fontSize=11;fontColor=default;labelBackgroundColor=default;endArrow=classic;" parent="1" edge="1">
          <mxGeometry relative="1" as="geometry">
            <mxPoint x="-84" y="850" as="sourcePoint" />
            <mxPoint x="-24" y="850" as="targetPoint" />
            <Array as="points">
              <mxPoint x="-584" y="1345" />
              <mxPoint x="-44" y="935" />
            </Array>
          </mxGeometry>
        </mxCell>
        <mxCell id="_CsFHggYIHRbgl_CoFxa-89" value="Пользовательский" style="text;html=1;align=left;verticalAlign=middle;whiteSpace=wrap;rounded=0;fontFamily=Helvetica;fontSize=11;fontColor=default;labelBackgroundColor=default;" parent="1" vertex="1">
          <mxGeometry x="1" y="834" width="100" height="30" as="geometry" />
        </mxCell>
        <mxCell id="_CsFHggYIHRbgl_CoFxa-90" value="" style="edgeStyle=entityRelationEdgeStyle;shape=connector;rounded=0;orthogonalLoop=1;jettySize=auto;html=1;strokeColor=#FF6666;align=center;verticalAlign=middle;fontFamily=Helvetica;fontSize=11;fontColor=default;labelBackgroundColor=default;endArrow=classic;" parent="1" edge="1">
          <mxGeometry relative="1" as="geometry">
            <mxPoint x="-84" y="876" as="sourcePoint" />
            <mxPoint x="-24" y="876" as="targetPoint" />
            <Array as="points">
              <mxPoint x="-584" y="1371" />
              <mxPoint x="-44" y="961" />
            </Array>
          </mxGeometry>
        </mxCell>
        <mxCell id="_CsFHggYIHRbgl_CoFxa-91" value="Кэшируемый" style="text;html=1;align=left;verticalAlign=middle;whiteSpace=wrap;rounded=0;fontFamily=Helvetica;fontSize=11;fontColor=default;labelBackgroundColor=default;" parent="1" vertex="1">
          <mxGeometry x="1" y="859" width="100" height="30" as="geometry" />
        </mxCell>
        <mxCell id="_CsFHggYIHRbgl_CoFxa-97" value="" style="rounded=1;whiteSpace=wrap;html=1;" parent="1" vertex="1">
          <mxGeometry x="410" y="772.5" width="70" height="40" as="geometry" />
        </mxCell>
        <mxCell id="_CsFHggYIHRbgl_CoFxa-98" value="Приложение" style="text;html=1;align=left;verticalAlign=middle;whiteSpace=wrap;rounded=0;fontFamily=Helvetica;fontSize=11;fontColor=default;labelBackgroundColor=default;" parent="1" vertex="1">
          <mxGeometry x="500" y="779.5" width="100" height="30" as="geometry" />
        </mxCell>
        <mxCell id="8HwspOPLJ6-Ykaj-4gRC-278" value="" style="shape=hexagon;perimeter=hexagonPerimeter2;whiteSpace=wrap;html=1;fixedSize=1;fontFamily=Helvetica;fontSize=11;fontColor=default;labelBackgroundColor=default;" vertex="1" parent="1">
          <mxGeometry x="150" y="765" width="74" height="55" as="geometry" />
        </mxCell>
        <mxCell id="8HwspOPLJ6-Ykaj-4gRC-279" value="" style="edgeStyle=entityRelationEdgeStyle;shape=connector;rounded=0;orthogonalLoop=1;jettySize=auto;html=1;strokeColor=#009900;align=center;verticalAlign=middle;fontFamily=Helvetica;fontSize=11;fontColor=#009900;labelBackgroundColor=default;endArrow=classic;" edge="1" parent="1">
          <mxGeometry relative="1" as="geometry">
            <mxPoint x="-83" y="900" as="sourcePoint" />
            <mxPoint x="-23" y="900" as="targetPoint" />
            <Array as="points">
              <mxPoint x="-583" y="1395" />
              <mxPoint x="-43" y="985" />
            </Array>
          </mxGeometry>
        </mxCell>
        <mxCell id="8HwspOPLJ6-Ykaj-4gRC-280" value="Запрос к БД" style="text;html=1;align=left;verticalAlign=middle;whiteSpace=wrap;rounded=0;fontFamily=Helvetica;fontSize=11;fontColor=default;labelBackgroundColor=default;" vertex="1" parent="1">
          <mxGeometry x="2" y="883" width="100" height="30" as="geometry" />
        </mxCell>
        <mxCell id="8HwspOPLJ6-Ykaj-4gRC-281" value="" style="edgeStyle=entityRelationEdgeStyle;shape=connector;rounded=0;orthogonalLoop=1;jettySize=auto;html=1;strokeColor=#3399FF;align=center;verticalAlign=middle;fontFamily=Helvetica;fontSize=11;fontColor=#009900;labelBackgroundColor=default;endArrow=classic;" edge="1" parent="1">
          <mxGeometry relative="1" as="geometry">
            <mxPoint x="-84" y="925" as="sourcePoint" />
            <mxPoint x="-24" y="925" as="targetPoint" />
            <Array as="points">
              <mxPoint x="-584" y="1420" />
              <mxPoint x="-44" y="1010" />
            </Array>
          </mxGeometry>
        </mxCell>
        <mxCell id="8HwspOPLJ6-Ykaj-4gRC-282" value="Запросы балансировки" style="text;html=1;align=left;verticalAlign=middle;whiteSpace=wrap;rounded=0;fontFamily=Helvetica;fontSize=11;fontColor=default;labelBackgroundColor=default;" vertex="1" parent="1">
          <mxGeometry x="1" y="908" width="129" height="30" as="geometry" />
        </mxCell>
        <mxCell id="8HwspOPLJ6-Ykaj-4gRC-283" value="" style="edgeStyle=entityRelationEdgeStyle;shape=connector;rounded=0;orthogonalLoop=1;jettySize=auto;html=1;strokeColor=default;align=center;verticalAlign=middle;fontFamily=Helvetica;fontSize=11;fontColor=default;labelBackgroundColor=default;endArrow=none;dashed=1;endFill=0;" edge="1" parent="1">
          <mxGeometry relative="1" as="geometry">
            <mxPoint x="-83" y="949" as="sourcePoint" />
            <mxPoint x="-23" y="949" as="targetPoint" />
            <Array as="points">
              <mxPoint x="-583" y="1444" />
              <mxPoint x="-43" y="1034" />
            </Array>
          </mxGeometry>
        </mxCell>
        <mxCell id="8HwspOPLJ6-Ykaj-4gRC-284" value="Запросы сервисов" style="text;html=1;align=left;verticalAlign=middle;whiteSpace=wrap;rounded=0;fontFamily=Helvetica;fontSize=11;fontColor=default;labelBackgroundColor=default;" vertex="1" parent="1">
          <mxGeometry x="2" y="933" width="100" height="30" as="geometry" />
        </mxCell>
        <mxCell id="8HwspOPLJ6-Ykaj-4gRC-285" value="Сервис кэширования" style="text;html=1;align=left;verticalAlign=middle;whiteSpace=wrap;rounded=0;fontFamily=Helvetica;fontSize=11;fontColor=default;labelBackgroundColor=default;" vertex="1" parent="1">
          <mxGeometry x="240" y="777.5" width="140" height="30" as="geometry" />
        </mxCell>
        <mxCell id="8HwspOPLJ6-Ykaj-4gRC-287" value="" style="ellipse;shape=cloud;whiteSpace=wrap;html=1;fontFamily=Helvetica;fontSize=11;fontColor=default;labelBackgroundColor=default;" vertex="1" parent="1">
          <mxGeometry x="618.43" y="760" width="90" height="63" as="geometry" />
        </mxCell>
        <mxCell id="8HwspOPLJ6-Ykaj-4gRC-288" value="Gateway" style="text;html=1;align=left;verticalAlign=middle;whiteSpace=wrap;rounded=0;fontFamily=Helvetica;fontSize=11;fontColor=default;labelBackgroundColor=default;" vertex="1" parent="1">
          <mxGeometry x="733.4300000000001" y="780" width="100" height="30" as="geometry" />
        </mxCell>
        <mxCell id="8HwspOPLJ6-Ykaj-4gRC-289" style="edgeStyle=orthogonalEdgeStyle;shape=connector;rounded=0;orthogonalLoop=1;jettySize=auto;html=1;exitX=0.5;exitY=1;exitDx=0;exitDy=0;entryX=0.4;entryY=0.1;entryDx=0;entryDy=0;entryPerimeter=0;strokeColor=#000000;align=center;verticalAlign=middle;fontFamily=Helvetica;fontSize=11;fontColor=default;labelBackgroundColor=default;endArrow=classic;" edge="1" parent="1" source="8HwspOPLJ6-Ykaj-4gRC-122" target="8HwspOPLJ6-Ykaj-4gRC-43">
          <mxGeometry relative="1" as="geometry" />
        </mxCell>
        <mxCell id="8HwspOPLJ6-Ykaj-4gRC-290" style="edgeStyle=orthogonalEdgeStyle;shape=connector;rounded=0;orthogonalLoop=1;jettySize=auto;html=1;exitX=0.5;exitY=1;exitDx=0;exitDy=0;entryX=0.4;entryY=0.1;entryDx=0;entryDy=0;entryPerimeter=0;strokeColor=#000000;align=center;verticalAlign=middle;fontFamily=Helvetica;fontSize=11;fontColor=default;labelBackgroundColor=default;endArrow=classic;" edge="1" parent="1" source="8HwspOPLJ6-Ykaj-4gRC-123" target="8HwspOPLJ6-Ykaj-4gRC-209">
          <mxGeometry relative="1" as="geometry" />
        </mxCell>
        <mxCell id="8HwspOPLJ6-Ykaj-4gRC-291" style="edgeStyle=orthogonalEdgeStyle;shape=connector;rounded=0;orthogonalLoop=1;jettySize=auto;html=1;exitX=0.5;exitY=1;exitDx=0;exitDy=0;entryX=0.4;entryY=0.1;entryDx=0;entryDy=0;entryPerimeter=0;strokeColor=#000000;align=center;verticalAlign=middle;fontFamily=Helvetica;fontSize=11;fontColor=default;labelBackgroundColor=default;endArrow=classic;" edge="1" parent="1" source="8HwspOPLJ6-Ykaj-4gRC-124" target="8HwspOPLJ6-Ykaj-4gRC-252">
          <mxGeometry relative="1" as="geometry" />
        </mxCell>
      </root>
    </mxGraphModel>
  </diagram>
</mxfile>
